<svg xmlns="http://www.w3.org/2000/svg" viewBox="0 0 200 60" width="200" height="60">
  <!-- Freediver silhouette - head-down streamlined position, left side -->
  <g fill="#A67B5B" transform="translate(18, 52) rotate(180) scale(0.85)">
    <!-- Head -->
    <circle cx="8" cy="3" r="2.8"/>
    <!-- Body - streamlined torso -->
    <path d="M5.8,5.5 Q5.5,7 5.8,9.5 L6,14 Q6.2,16.5 6.6,18 L9.4,18 Q9.8,16.5 10,14 L10.2,9.5 Q10.5,7 10.2,5.5 Z"/>
    <!-- Arms - streamlined along body -->
    <path d="M5.8,8 Q4.5,8.8 3.5,10 Q3,10.6 3.3,11 Q3.6,10.5 4.8,9.8 Q5.8,9.2 6.2,9.5"/>
    <path d="M10.2,8 Q11.5,8.8 12.5,10 Q13,10.6 12.7,11 Q12.4,10.5 11.2,9.8 Q10.2,9.2 9.8,9.5"/>
    <!-- Legs -->
    <path d="M6.4,17.5 L6,23.5 Q5.9,25 6.2,25.5 L9.8,25.5 Q10.1,25 10,23.5 L9.6,17.5 Z"/>
    <!-- Fins -->
    <path d="M6.2,25 Q4.8,27 3,29.5 Q2,31 2.5,31.5 Q3.2,31 5,28.5 Q6,27 6.8,25.8 Z"/>
    <path d="M9.8,25 Q11.2,27 13,29.5 Q14,31 13.5,31.5 Q12.8,31 11,28.5 Q10,27 9.2,25.8 Z"/>
  </g>
  <!-- Text: 自由潛水學習筆記 -->
  <text x="42" y="38" font-family="'Noto Sans TC', 'PingFang TC', 'Microsoft JhengHei', 'Hiragino Sans', sans-serif" font-size="18" font-weight="500" fill="#3a3330" letter-spacing="1">自由潛水學習筆記</text>
</svg>
